<svg width="205" height="80" viewBox="0 0 205 80" fill="none" xmlns="http://www.w3.org/2000/svg">
<mask id="mask0_42_27080" style="mask-type:luminance" maskUnits="userSpaceOnUse" x="0" y="10" width="86" height="61">
<path fill-rule="evenodd" clip-rule="evenodd" d="M75.5291 43.5044C75.5291 40.9962 77.8523 38.977 80.721 38.977C83.5925 38.977 85.9013 41.0063 85.9013 43.5044C85.9013 46.0126 83.5781 48.0293 80.721 48.0293C79.8263 48.0293 78.9721 47.8327 78.239 47.4823L74.5017 52.287C75.3819 52.9651 75.9418 53.9558 75.9418 55.075C75.9418 57.1169 74.0486 58.7731 71.7109 58.7731C69.3762 58.7731 67.4801 57.1169 67.4801 55.075C67.4801 53.676 68.3747 52.4508 69.6965 51.8332L68.6402 49.4989C68.4007 49.5468 68.1467 49.5695 67.8928 49.5695C66.0371 49.5695 64.5422 48.2511 64.5422 46.6403C64.5422 45.0194 66.0515 43.701 67.8928 43.701C68.2016 43.701 68.5075 43.7363 68.7874 43.8069L70.9635 39.5845C70.4296 39.2215 70.0832 38.6619 70.0832 38.0317C70.0832 36.9477 71.0847 36.073 72.3257 36.073C72.874 36.073 73.3675 36.2368 73.7542 36.5267L77.6503 33.9378C77.3704 33.4942 77.2116 32.9698 77.2116 32.4203C77.2116 31.5103 77.6647 30.6834 78.3718 30.1112L75.9706 27.0207C75.5147 27.2072 75.0096 27.3106 74.4757 27.3106C73.2203 27.3106 72.1265 26.7283 71.5233 25.8661L67.8668 27.2072C67.8668 27.2526 67.8812 27.3005 67.8812 27.3358C67.8812 28.0693 67.2665 28.6769 66.4642 28.7928L65.9707 31.896C67.2001 32.2338 68.0804 33.237 68.0804 34.4168C68.0804 35.8738 66.7182 37.0637 65.0501 37.0637C63.9303 37.0637 62.9549 36.5267 62.421 35.7352L58.0833 37.1343C58.0833 37.1469 58.0833 37.1569 58.0833 37.1796C58.0833 37.9611 57.3618 38.5913 56.4672 38.5913C56.3748 38.5913 56.268 38.5812 56.1728 38.5686L53.9708 42.0675C54.2363 42.2793 54.4643 42.5364 54.6115 42.8263L60.698 41.707C60.7933 41.0063 61.4715 40.4592 62.2997 40.4592C63.1944 40.4592 63.9159 41.0894 63.9159 41.8709C63.9159 42.5944 63.2896 43.1893 62.4873 43.27L60.698 50.7367C62.5941 51.2736 63.9563 52.8239 63.9563 54.6566C63.9563 56.9304 61.8466 58.7857 59.2291 58.7857C59.1511 58.7857 59.0703 58.7857 58.9895 58.7857L58.2825 62.6123C58.9231 62.8694 59.3762 63.4391 59.3762 64.1046C59.3762 64.8508 58.8164 65.4709 58.0429 65.6802L58.1093 68.5741C58.6028 68.7354 58.9635 69.169 58.9635 69.658C58.9635 70.2983 58.3633 70.8252 57.6273 70.8252C56.8943 70.8252 56.294 70.2983 56.294 69.658C56.294 69.5421 56.32 69.4236 56.3604 69.3076L54.0227 67.6036C53.7313 67.78 53.3705 67.8859 52.9694 67.8859C51.9419 67.8859 51.1137 67.1624 51.1137 66.2625C51.1137 65.6222 51.5408 65.0726 52.1555 64.8054L51.7544 62.8694C51.7284 62.8694 51.688 62.8694 51.662 62.8694C49.7919 62.8694 48.271 61.5384 48.271 59.9049C48.271 58.2714 49.7919 56.943 51.662 56.943C52.5567 56.943 53.3561 57.2455 53.9564 57.7345L55.2522 56.8371C54.7846 56.1968 54.5191 55.4481 54.5191 54.6314C54.5191 53.8499 54.7702 53.1163 55.2118 52.4861L51.9015 50.2703C51.6476 50.4216 51.3417 50.5148 51.0069 50.5148C50.6461 50.5148 50.3142 50.409 50.0459 50.235L47.9506 51.5055C48.3229 52.1004 48.5249 52.7785 48.5249 53.502C48.5249 55.8111 46.3893 57.6765 43.7457 57.6765C41.5033 57.6765 39.6332 56.3354 39.1137 54.5154L35.5351 54.9465C35.4947 56.4287 34.1066 57.6185 32.3981 57.6185C30.6636 57.6185 29.261 56.3934 29.261 54.8784C29.261 53.3609 30.6636 52.1357 32.3981 52.1357C32.7184 52.1357 33.0272 52.1836 33.3071 52.2517L37.1253 45.4984C36.1498 44.9261 35.4832 43.9934 35.362 42.9196L32.2134 42.8263C31.9854 43.3405 31.4255 43.701 30.7559 43.701C30.5828 43.701 30.424 43.6783 30.2624 43.633L27.7401 46.4891C28.528 47.1672 29.007 48.0999 29.007 49.1385C29.007 51.1904 27.0994 52.8592 24.7502 52.8592C22.7733 52.8592 21.1052 51.6694 20.6261 50.0712L17.7026 50.409C17.6478 51.8685 16.2741 53.0458 14.5915 53.0458C12.8686 53.0458 11.4804 51.8332 11.4804 50.3283C11.4804 48.904 12.7358 47.7369 14.3376 47.6209L14.6175 44.6363C14.0576 44.4245 13.6709 43.9355 13.6709 43.3632C13.6709 42.6045 14.378 41.9743 15.2582 41.9743C15.4602 41.9743 15.6334 42.0095 15.8065 42.0574L21.7719 35.6419C21.6276 35.4302 21.5323 35.173 21.5323 34.9058C21.5323 34.5328 21.7055 34.195 21.9739 33.9504L21.0533 32.385C20.5857 32.5388 20.0922 32.6194 19.5699 32.6194C18.8224 32.6194 18.1153 32.4455 17.515 32.1531L13.9249 36.504C14.2972 36.8645 14.5252 37.3561 14.5252 37.893C14.5252 39.035 13.4573 39.9677 12.15 39.9677C11.8816 39.9677 11.6132 39.9349 11.3737 39.8517L7.62188 45.1959C8.47902 45.8009 9.01293 46.7235 9.01293 47.7621C9.01293 49.5922 7.31597 51.0745 5.22075 51.0745C3.12552 51.0745 1.42856 49.5922 1.42856 47.7621C1.42856 46.2672 2.56275 45.0093 4.11253 44.5884L3.81816 43.0128C3.79218 43.0128 3.77775 43.0128 3.75178 43.0128C1.80374 43.0128 0.227993 41.6365 0.227993 39.9349C0.227993 38.2434 1.78931 36.8645 3.72581 36.8544L3.93937 35.4881C1.68253 35.0117 0 33.227 0 31.1019C0 28.6189 2.31167 26.5997 5.15437 26.5997C7.5151 26.5997 9.51798 27.9887 10.1183 29.8894L15.313 29.0852C15.313 29.0146 15.313 28.9567 15.313 28.8861C15.313 28.2559 15.4977 27.661 15.8065 27.1366L11.9739 24.7923C11.5468 25.1426 10.9725 25.3519 10.3463 25.3519C9.02447 25.3519 7.94223 24.4066 7.94223 23.252C7.94223 22.0975 9.02447 21.1522 10.3463 21.1522C11.668 21.1522 12.7503 22.0975 12.7503 23.252C12.7503 23.5444 12.6839 23.8116 12.5627 24.0562L16.3924 26.4005C16.9407 25.8661 17.6738 25.4678 18.4905 25.2813L18.4761 21.8857C17.0331 21.6765 15.9393 20.5925 15.9393 19.2741C15.9393 17.8146 17.3015 16.6248 18.9696 16.6248C19.9566 16.6248 20.8253 17.0331 21.3736 17.6633L26.2192 15.4475C26.098 15.1324 26.0316 14.8047 26.0316 14.4568C26.0316 12.788 27.5814 11.4218 29.5034 11.4218C31.4111 11.4218 32.9724 12.7754 32.9724 14.4568C32.9724 15.5635 32.2913 16.5441 31.2639 17.0684L32.8656 20.522C33.1196 20.4741 33.3735 20.4413 33.6535 20.4413C34.2797 20.4413 34.8829 20.5925 35.3879 20.8598L39.0185 17.0104C38.1931 16.2643 37.6708 15.2484 37.6708 14.1291C37.6708 11.8553 39.7804 10 42.398 10C45.0012 10 47.1224 11.8427 47.1224 14.1291C47.1224 15.145 46.6952 16.0777 46.0026 16.7886L49.6043 20.101C49.8179 20.0077 50.0603 19.9623 50.3142 19.9623C50.3806 19.9623 50.447 19.9623 50.499 19.9749L52.421 16.3449C51.636 15.8685 51.1137 15.0744 51.1137 14.1644C51.1137 12.7049 52.4759 11.515 54.144 11.515C55.812 11.515 57.1742 12.7049 57.1742 14.1644C57.1742 14.4896 57.1079 14.8047 56.9866 15.0845L60.0458 16.6374C60.8048 15.7626 62.0198 15.1904 63.3676 15.1904C65.6763 15.1904 67.5465 16.8239 67.5465 18.8431C67.5465 19.3321 67.4397 19.7985 67.2405 20.2195L71.7513 22.4227C72.3776 21.7118 73.3675 21.2454 74.4873 21.2454C76.3978 21.2454 77.9447 22.5991 77.9447 24.2679C77.9447 25.1426 77.5175 25.9342 76.8364 26.4837L79.2405 29.5743C79.708 29.3751 80.2419 29.2592 80.8018 29.2592C82.7787 29.2592 84.3804 30.6582 84.3804 32.385C84.3804 34.1118 82.7787 35.5134 80.8018 35.5134C79.8263 35.5134 78.9346 35.173 78.2939 34.6134L74.3949 37.2048C74.5161 37.4494 74.5825 37.7166 74.5825 37.9964C74.5825 39.0829 73.5811 39.9576 72.3401 39.9576C72.1929 39.9576 72.0457 39.945 71.913 39.9223L69.7369 44.1447C70.6576 44.669 71.2723 45.579 71.2723 46.6075C71.2723 47.6789 70.6027 48.6242 69.6157 49.1385L70.6691 51.4702C71.0183 51.3896 71.3646 51.3543 71.7369 51.3543C72.4324 51.3543 73.0991 51.5055 73.6734 51.7626L77.4108 46.9554C76.2766 46.1286 75.5551 44.8808 75.5551 43.4792L75.5291 43.5044ZM19.5179 25.188L19.5035 21.8983C20.932 21.6891 22.0143 20.5925 22.0143 19.2842C22.0143 19.0044 21.9595 18.7246 21.8671 18.47L26.7127 16.2517C27.3389 17.0104 28.3663 17.4995 29.515 17.4995C29.7949 17.4995 30.0633 17.4768 30.3288 17.4188L31.9305 20.8724C30.9435 21.3841 30.2769 22.3294 30.2769 23.4159C30.2769 24.7217 31.2523 25.8308 32.6001 26.2266L31.8786 29.96C31.7862 29.96 31.691 29.9474 31.5842 29.9474C28.9407 29.9474 26.805 31.8153 26.805 34.1244C26.805 36.4335 28.9407 38.3014 31.5842 38.3014C34.095 38.3014 36.1498 36.6099 36.349 34.4622L39.1137 34.3916C39.3417 34.9184 39.9132 35.2915 40.5943 35.2915C41.0762 35.2915 41.5033 35.105 41.7977 34.8L45.4138 36.0604C45.3734 36.2469 45.3475 36.4335 45.3475 36.62C45.3475 38.0896 46.7212 39.2921 48.4037 39.2921C50.0863 39.2921 51.46 38.0896 51.46 36.62C51.46 35.9797 51.1945 35.3848 50.7673 34.9184L54.5971 31.0439C55.2666 31.4296 56.066 31.6615 56.9203 31.6615C59.2291 31.6615 61.0992 30.0305 61.0992 28.0114C61.0992 25.9922 59.2291 24.3612 56.9203 24.3612C56.0545 24.3612 55.2377 24.5931 54.5711 24.9889L51.714 22.1328C51.8611 21.921 51.9419 21.6664 51.9419 21.3967C51.9419 20.9883 51.7428 20.6152 51.4225 20.348L53.3301 16.718C53.5841 16.7785 53.8496 16.8113 54.118 16.8113C55.053 16.8113 55.8929 16.4382 56.4412 15.8559L59.4975 17.4062C59.2839 17.8499 59.1627 18.3288 59.1627 18.8431C59.1627 20.8598 61.0328 22.4933 63.3416 22.4933C63.5696 22.4933 63.7947 22.4806 64.0082 22.4479L65.2117 26.0754C64.7557 26.3426 64.4642 26.7862 64.4642 27.3005C64.4642 27.8954 64.8625 28.397 65.4253 28.6416L64.9289 31.7447C63.3012 31.7901 61.9938 32.9572 61.9938 34.3916C61.9938 34.5554 62.0054 34.7193 62.0458 34.8831L57.7081 36.2822C57.4138 35.9545 56.9607 35.7579 56.4527 35.7579C55.5581 35.7579 54.8395 36.3881 54.8395 37.1695C54.8395 37.5426 54.9982 37.8678 55.2666 38.1249L53.0617 41.6264C52.8366 41.5659 52.5971 41.5331 52.3546 41.5331C50.9953 41.5331 49.8987 42.4885 49.8987 43.6783C49.8987 44.8682 50.9953 45.8261 52.3546 45.8261C53.7168 45.8261 54.8106 44.8682 54.8106 43.6783L60.9 42.5465C61.0443 42.7557 61.2319 42.9322 61.4715 43.0481L59.685 50.5148C59.5379 50.5022 59.3762 50.4921 59.2175 50.4921C57.8813 50.4921 56.6663 50.9812 55.8005 51.7626L52.4903 49.5468C52.5422 49.4057 52.5826 49.2418 52.5826 49.0906C52.5826 48.3091 51.8611 47.6789 50.9665 47.6789C50.0718 47.6789 49.3532 48.3091 49.3532 49.0906C49.3532 49.2317 49.3792 49.3603 49.4196 49.4889L47.3244 50.7594C46.4413 49.872 45.1483 49.3124 43.7053 49.3124C41.0618 49.3124 38.9262 51.1803 38.9262 53.4894C38.9262 53.5348 38.9262 53.5827 38.9262 53.618L35.3504 54.049C35.1484 53.4768 34.7213 52.9752 34.1729 52.6374L37.9911 45.8841C38.3922 46 38.8338 46.0706 39.2869 46.0706C41.4889 46.0706 43.2782 44.5077 43.2782 42.5818C43.2782 40.6559 41.4889 39.1055 39.2869 39.1055C37.31 39.1055 35.6708 40.366 35.3504 42.0221L32.1989 41.9289C31.9998 41.3693 31.4111 40.971 30.7155 40.971C29.8613 40.971 29.1542 41.5785 29.1542 42.3373C29.1542 42.6171 29.2495 42.8616 29.4082 43.0834L26.8858 45.942C26.2451 45.6043 25.4977 45.4177 24.7098 45.4177C22.3606 45.4177 20.453 47.084 20.453 49.1385C20.453 49.1485 20.453 49.1738 20.453 49.1838L17.5295 49.5241C17.2091 48.6242 16.3664 47.9133 15.313 47.6789L15.593 44.6942C16.2856 44.5405 16.7935 43.9934 16.7935 43.3506C16.7935 43.0834 16.7012 42.8263 16.554 42.6171L22.5193 36.2015C22.6954 36.2595 22.8801 36.2822 23.0677 36.2822C23.9479 36.2822 24.6578 35.6646 24.6578 34.8932C24.6578 34.137 23.9479 33.5068 23.0677 33.5068C22.9869 33.5068 22.9089 33.5068 22.8397 33.5169L21.9191 31.9539C23.0417 31.2884 23.7892 30.1591 23.7892 28.8735C23.7892 26.8215 21.8786 25.1527 19.5295 25.1527C19.5035 25.1527 19.4919 25.1527 19.4775 25.1527L19.5179 25.188ZM32.88 30.1112L33.6015 26.3779C33.6131 26.3779 33.639 26.3779 33.6535 26.3779C34.8829 26.3779 35.9507 25.8056 36.551 24.9561L41.4889 26.7409C41.4225 26.9854 41.3821 27.2299 41.3821 27.4971C41.3821 29.2012 42.9579 30.5776 44.9059 30.5776C46.8568 30.5776 48.4297 29.2012 48.4297 27.4971C48.4297 26.6703 48.0574 25.9241 47.4571 25.3645L49.7659 22.763C49.9391 22.821 50.1267 22.8436 50.3142 22.8436C50.5394 22.8436 50.7529 22.8084 50.9549 22.7277L53.8092 25.5838C53.1425 26.2266 52.7414 27.0887 52.7414 28.024C52.7414 28.9668 53.1569 29.8188 53.8236 30.4717L49.9939 34.3462C49.5264 34.1017 48.9925 33.9605 48.4037 33.9605C47.2955 33.9605 46.3345 34.4748 45.789 35.2436L42.17 33.9832C42.17 33.9605 42.17 33.9378 42.17 33.9151C42.17 33.1438 41.4629 32.5262 40.5827 32.5262C39.8756 32.5262 39.2725 32.9345 39.0733 33.5068L36.3115 33.5748C36.0575 31.9086 34.6809 30.565 32.8656 30.1112H32.88ZM45.2551 17.4188L48.8568 20.7312C48.7385 20.9303 48.6577 21.1648 48.6577 21.4093C48.6577 21.6992 48.7645 21.979 48.9376 22.2134L46.6288 24.8149C46.1209 24.5578 45.5206 24.4192 44.8944 24.4192C43.613 24.4192 42.4903 25.0242 41.8756 25.9115L36.9377 24.1141C37.0041 23.8923 37.0301 23.6478 37.0301 23.4033C37.0301 22.6445 36.6982 21.9563 36.1643 21.432L39.7948 17.5827C40.5423 18.0137 41.4225 18.2583 42.3836 18.2583C43.4658 18.2583 44.4528 17.9431 45.2551 17.4062V17.4188ZM66.1987 25.8535L64.9981 22.2134C65.6908 21.9563 66.2795 21.5379 66.7182 21.011L71.2319 23.2167C71.0847 23.5444 71.0039 23.9049 71.0039 24.278C71.0039 24.5351 71.0443 24.7796 71.1107 25.0242L67.4541 26.3653C67.1453 26.0527 66.7066 25.8535 66.1987 25.8409V25.8535ZM58.0025 58.6218L57.2954 62.4485C56.3604 62.5417 55.6273 63.2425 55.6273 64.082C55.6273 64.8508 56.2276 65.4936 57.0415 65.6802L57.1079 68.5741C57.0819 68.5842 57.0415 68.5968 57.0155 68.6069L54.6779 66.9053C54.7846 66.7061 54.8395 66.4843 54.8395 66.2524C54.8395 65.4104 54.1035 64.7223 53.1685 64.6416L52.7702 62.7056C54.1035 62.3098 55.0646 61.2006 55.0646 59.9049C55.0646 59.368 54.9059 58.8664 54.6115 58.4353L55.9073 57.5379C56.4816 58.0395 57.2002 58.4227 58.0141 58.6118L58.0025 58.6218ZM16.6868 31.6388L13.0966 35.9898C12.8022 35.8864 12.4819 35.8159 12.15 35.8159C10.8398 35.8159 9.77194 36.7486 9.77194 37.893C9.77194 38.4753 10.0519 39.0123 10.5079 39.3854L6.75609 44.7295C6.28856 44.5405 5.76908 44.4472 5.22075 44.4472C5.18034 44.4472 5.15437 44.4472 5.11396 44.4472L4.81959 42.8742C6.24816 42.4759 7.27557 41.3113 7.27557 39.945C7.27557 38.5459 6.20775 37.3662 4.73879 36.9931L4.95235 35.6293C5.02161 35.6293 5.08799 35.6293 5.16591 35.6293C8.01149 35.6293 10.3203 33.6101 10.3203 31.1271C10.3203 31.0086 10.3203 30.9053 10.3058 30.7868L15.4977 29.9953C15.7257 30.6355 16.1413 31.2078 16.6868 31.6514V31.6388ZM20.5857 40.7164C20.5857 39.2568 21.9479 38.067 23.616 38.067C25.2841 38.067 26.6463 39.2568 26.6463 40.7164C26.6463 42.1734 25.2841 43.3632 23.616 43.3632C21.9479 43.3632 20.5857 42.1734 20.5857 40.7164ZM23.8296 22.9495C23.8296 22.1781 24.5366 21.5605 25.4169 21.5605C26.2971 21.5605 27.007 22.1781 27.007 22.9495C27.007 23.7058 26.2971 24.336 25.4169 24.336C24.5511 24.336 23.8296 23.7184 23.8296 22.9495Z" fill="white"/>
</mask>
<g mask="url(#mask0_42_27080)">
<path d="M0.0142822 10V70.8252H85.9012V10H0.0142822Z" fill="url(#paint0_linear_42_27080)"/>
</g>
<path d="M114.436 20.8H119.972C120.196 20.8 120.382 20.8747 120.532 21.024C120.692 21.1733 120.772 21.36 120.772 21.584C120.772 21.808 120.692 21.9893 120.532 22.128C120.382 22.2667 120.196 22.336 119.972 22.336H115.14L115.3 22.064V25.648L115.156 25.488H119.252C119.476 25.488 119.662 25.5627 119.812 25.712C119.972 25.8613 120.052 26.0533 120.052 26.288C120.052 26.512 119.972 26.6933 119.812 26.832C119.662 26.9707 119.476 27.04 119.252 27.04H115.188L115.3 26.896V30.592L115.188 30.464H119.972C120.196 30.464 120.382 30.544 120.532 30.704C120.692 30.8533 120.772 31.0293 120.772 31.232C120.772 31.456 120.692 31.6427 120.532 31.792C120.382 31.9307 120.196 32 119.972 32H114.436C114.212 32 114.02 31.9253 113.86 31.776C113.7 31.616 113.62 31.4187 113.62 31.184V21.616C113.62 21.3813 113.7 21.1893 113.86 21.04C114.02 20.88 114.212 20.8 114.436 20.8ZM127.272 20.8C127.838 20.8 128.36 20.9547 128.84 21.264C129.32 21.5627 129.704 21.9733 129.992 22.496C130.28 23.0187 130.424 23.6053 130.424 24.256C130.424 24.9067 130.28 25.4987 129.992 26.032C129.704 26.5547 129.32 26.976 128.84 27.296C128.36 27.6053 127.838 27.76 127.272 27.76H124.184L124.312 27.504V31.184C124.312 31.4187 124.238 31.616 124.088 31.776C123.95 31.9253 123.763 32 123.528 32C123.304 32 123.118 31.9253 122.968 31.776C122.83 31.616 122.76 31.4187 122.76 31.184V21.616C122.76 21.3813 122.84 21.1893 123 21.04C123.16 20.88 123.352 20.8 123.576 20.8H127.272ZM127.272 26.224C127.55 26.224 127.8 26.1333 128.024 25.952C128.259 25.7707 128.446 25.5307 128.584 25.232C128.734 24.9333 128.808 24.608 128.808 24.256C128.808 23.904 128.734 23.584 128.584 23.296C128.446 23.008 128.259 22.7787 128.024 22.608C127.8 22.4267 127.55 22.336 127.272 22.336H124.152L124.312 22.096V26.432L124.168 26.224H127.272ZM134.05 31.184C134.039 31.4187 133.948 31.616 133.778 31.776C133.618 31.9253 133.426 32 133.202 32C132.956 32 132.754 31.9253 132.594 31.776C132.444 31.616 132.37 31.4187 132.37 31.184V21.616C132.37 21.3813 132.45 21.1893 132.61 21.04C132.77 20.88 132.978 20.8 133.234 20.8C133.447 20.8 133.634 20.88 133.794 21.04C133.964 21.1893 134.05 21.3813 134.05 21.616V31.184ZM140.075 32.16C139.307 32.16 138.625 32.0533 138.027 31.84C137.43 31.6267 136.859 31.2747 136.315 30.784C136.198 30.6987 136.107 30.5973 136.043 30.48C135.99 30.352 135.963 30.224 135.963 30.096C135.963 29.8933 136.038 29.712 136.187 29.552C136.337 29.392 136.523 29.312 136.747 29.312C136.918 29.312 137.078 29.3707 137.227 29.488C137.633 29.8613 138.054 30.144 138.491 30.336C138.939 30.528 139.462 30.624 140.059 30.624C140.486 30.624 140.875 30.5547 141.227 30.416C141.59 30.2773 141.878 30.0907 142.091 29.856C142.305 29.6213 142.411 29.3493 142.411 29.04C142.411 28.656 142.299 28.3413 142.075 28.096C141.862 27.84 141.547 27.632 141.131 27.472C140.726 27.3013 140.235 27.1573 139.659 27.04C139.126 26.944 138.646 26.8107 138.219 26.64C137.803 26.4693 137.446 26.256 137.147 26C136.849 25.7333 136.619 25.4187 136.459 25.056C136.299 24.6933 136.219 24.272 136.219 23.792C136.219 23.1413 136.39 22.5813 136.731 22.112C137.073 21.6427 137.537 21.28 138.123 21.024C138.71 20.768 139.371 20.64 140.107 20.64C140.779 20.64 141.409 20.7467 141.995 20.96C142.582 21.1627 143.057 21.44 143.419 21.792C143.675 22.016 143.803 22.256 143.803 22.512C143.803 22.704 143.723 22.8853 143.563 23.056C143.414 23.216 143.238 23.296 143.035 23.296C142.886 23.296 142.758 23.2533 142.651 23.168C142.481 22.9867 142.251 22.8267 141.963 22.688C141.675 22.5387 141.366 22.416 141.035 22.32C140.715 22.224 140.406 22.176 140.107 22.176C139.627 22.176 139.217 22.2453 138.875 22.384C138.534 22.512 138.273 22.6933 138.091 22.928C137.91 23.152 137.819 23.4187 137.819 23.728C137.819 24.0907 137.921 24.3893 138.123 24.624C138.337 24.8587 138.63 25.0507 139.003 25.2C139.377 25.3387 139.803 25.4667 140.283 25.584C140.87 25.712 141.393 25.856 141.851 26.016C142.321 26.176 142.715 26.384 143.035 26.64C143.355 26.8853 143.601 27.1947 143.771 27.568C143.942 27.9413 144.027 28.4053 144.027 28.96C144.027 29.6 143.846 30.16 143.483 30.64C143.121 31.12 142.641 31.4933 142.043 31.76C141.457 32.0267 140.801 32.16 140.075 32.16ZM149.643 32C149.387 32 149.179 31.9253 149.019 31.776C148.869 31.616 148.795 31.4187 148.795 31.184V21.6H150.507V31.184C150.507 31.4187 150.421 31.616 150.251 31.776C150.091 31.9253 149.888 32 149.643 32ZM146.011 22.336C145.787 22.336 145.595 22.2667 145.435 22.128C145.275 21.9787 145.195 21.7867 145.195 21.552C145.195 21.328 145.275 21.1467 145.435 21.008C145.595 20.8693 145.787 20.8 146.011 20.8H153.291C153.515 20.8 153.701 20.8747 153.851 21.024C154.011 21.1627 154.091 21.344 154.091 21.568C154.091 21.8027 154.011 21.9893 153.851 22.128C153.701 22.2667 153.515 22.336 153.291 22.336H146.011ZM156.717 20.8H162.253C162.477 20.8 162.664 20.8747 162.813 21.024C162.973 21.1733 163.053 21.36 163.053 21.584C163.053 21.808 162.973 21.9893 162.813 22.128C162.664 22.2667 162.477 22.336 162.253 22.336H157.421L157.581 22.064V25.648L157.437 25.488H161.533C161.757 25.488 161.944 25.5627 162.093 25.712C162.253 25.8613 162.333 26.0533 162.333 26.288C162.333 26.512 162.253 26.6933 162.093 26.832C161.944 26.9707 161.757 27.04 161.533 27.04H157.469L157.581 26.896V30.592L157.469 30.464H162.253C162.477 30.464 162.664 30.544 162.813 30.704C162.973 30.8533 163.053 31.0293 163.053 31.232C163.053 31.456 162.973 31.6427 162.813 31.792C162.664 31.9307 162.477 32 162.253 32H156.717C156.493 32 156.301 31.9253 156.141 31.776C155.981 31.616 155.901 31.4187 155.901 31.184V21.616C155.901 21.3813 155.981 21.1893 156.141 21.04C156.301 20.88 156.493 20.8 156.717 20.8ZM165.874 20.784C166.002 20.784 166.135 20.816 166.274 20.88C166.412 20.944 166.519 21.0347 166.594 21.152L170.658 27.344L169.97 27.312L174.114 21.152C174.284 20.9067 174.503 20.784 174.77 20.784C174.983 20.784 175.17 20.864 175.33 21.024C175.5 21.1733 175.586 21.3653 175.586 21.6V31.184C175.586 31.4187 175.511 31.616 175.362 31.776C175.212 31.9253 175.015 32 174.77 32C174.514 32 174.306 31.9253 174.146 31.776C173.996 31.616 173.922 31.4187 173.922 31.184V23.072L174.434 23.184L170.914 28.544C170.839 28.64 170.743 28.7253 170.626 28.8C170.508 28.864 170.386 28.8907 170.258 28.88C170.14 28.8907 170.018 28.864 169.89 28.8C169.772 28.7253 169.676 28.64 169.602 28.544L166.21 23.264L166.594 22.624V31.184C166.594 31.4187 166.519 31.616 166.37 31.776C166.231 31.9253 166.044 32 165.81 32C165.586 32 165.399 31.9253 165.25 31.776C165.111 31.616 165.042 31.4187 165.042 31.184V21.6C165.042 21.376 165.122 21.184 165.282 21.024C165.452 20.864 165.65 20.784 165.874 20.784ZM179.014 20.8H184.55C184.774 20.8 184.961 20.8747 185.11 21.024C185.27 21.1733 185.35 21.36 185.35 21.584C185.35 21.808 185.27 21.9893 185.11 22.128C184.961 22.2667 184.774 22.336 184.55 22.336H179.718L179.878 22.064V25.648L179.734 25.488H183.83C184.054 25.488 184.241 25.5627 184.39 25.712C184.55 25.8613 184.63 26.0533 184.63 26.288C184.63 26.512 184.55 26.6933 184.39 26.832C184.241 26.9707 184.054 27.04 183.83 27.04H179.766L179.878 26.896V30.592L179.766 30.464H184.55C184.774 30.464 184.961 30.544 185.11 30.704C185.27 30.8533 185.35 31.0293 185.35 31.232C185.35 31.456 185.27 31.6427 185.11 31.792C184.961 31.9307 184.774 32 184.55 32H179.014C178.79 32 178.598 31.9253 178.438 31.776C178.278 31.616 178.198 31.4187 178.198 31.184V21.616C178.198 21.3813 178.278 21.1893 178.438 21.04C178.598 20.88 178.79 20.8 179.014 20.8Z" fill="white"/>
<path d="M101.707 47.549C101.707 47.6737 101.659 47.78 101.564 47.868C101.476 47.956 101.369 48 101.245 48C101.105 48 100.995 47.956 100.915 47.868C100.834 47.78 100.794 47.6737 100.794 47.549V40.751C100.794 40.619 100.838 40.5127 100.926 40.432C101.014 40.344 101.124 40.3 101.256 40.3C101.38 40.3 101.487 40.344 101.575 40.432C101.663 40.5127 101.707 40.619 101.707 40.751V47.549ZM106.313 42.17C106.812 42.17 107.204 42.2727 107.49 42.478C107.776 42.6833 107.978 42.9583 108.095 43.303C108.22 43.6477 108.282 44.0327 108.282 44.458V47.549C108.282 47.6737 108.238 47.78 108.15 47.868C108.07 47.956 107.967 48 107.842 48C107.718 48 107.611 47.956 107.523 47.868C107.443 47.78 107.402 47.6737 107.402 47.549V44.48C107.402 44.2013 107.358 43.952 107.27 43.732C107.19 43.5047 107.05 43.325 106.852 43.193C106.662 43.0537 106.398 42.984 106.06 42.984C105.752 42.984 105.47 43.0537 105.213 43.193C104.957 43.325 104.751 43.5047 104.597 43.732C104.443 43.952 104.366 44.2013 104.366 44.48V47.549C104.366 47.6737 104.322 47.78 104.234 47.868C104.154 47.956 104.051 48 103.926 48C103.802 48 103.695 47.956 103.607 47.868C103.527 47.78 103.486 47.6737 103.486 47.549V42.753C103.486 42.6283 103.527 42.5257 103.607 42.445C103.695 42.357 103.802 42.313 103.926 42.313C104.058 42.313 104.165 42.357 104.245 42.445C104.326 42.5257 104.366 42.6283 104.366 42.753V43.534L104.146 43.776C104.183 43.5853 104.267 43.3947 104.399 43.204C104.531 43.006 104.696 42.83 104.894 42.676C105.092 42.522 105.312 42.401 105.554 42.313C105.796 42.2177 106.049 42.17 106.313 42.17ZM109.591 47.098C109.525 47.0027 109.496 46.9037 109.503 46.801C109.511 46.691 109.573 46.5957 109.69 46.515C109.764 46.4637 109.848 46.4417 109.943 46.449C110.046 46.4563 110.138 46.504 110.218 46.592C110.424 46.834 110.658 47.0283 110.922 47.175C111.186 47.3143 111.509 47.384 111.89 47.384C112.066 47.3767 112.242 47.3473 112.418 47.296C112.594 47.2447 112.741 47.1567 112.858 47.032C112.983 46.9 113.045 46.7277 113.045 46.515C113.045 46.3097 112.983 46.1483 112.858 46.031C112.734 45.9063 112.572 45.8073 112.374 45.734C112.176 45.6533 111.96 45.5837 111.725 45.525C111.483 45.459 111.245 45.3857 111.01 45.305C110.776 45.217 110.563 45.1107 110.372 44.986C110.189 44.854 110.039 44.6927 109.921 44.502C109.811 44.304 109.756 44.0657 109.756 43.787C109.756 43.457 109.844 43.171 110.02 42.929C110.204 42.687 110.446 42.5 110.746 42.368C111.054 42.236 111.388 42.17 111.747 42.17C111.953 42.17 112.165 42.1957 112.385 42.247C112.613 42.291 112.833 42.3717 113.045 42.489C113.258 42.599 113.445 42.753 113.606 42.951C113.672 43.0243 113.709 43.116 113.716 43.226C113.724 43.336 113.676 43.435 113.573 43.523C113.493 43.5817 113.401 43.6073 113.298 43.6C113.203 43.5927 113.122 43.556 113.056 43.49C112.902 43.3067 112.708 43.1673 112.473 43.072C112.246 42.9693 111.993 42.918 111.714 42.918C111.538 42.918 111.366 42.9437 111.197 42.995C111.029 43.0463 110.886 43.1343 110.768 43.259C110.658 43.3763 110.603 43.5413 110.603 43.754C110.611 43.952 110.677 44.1133 110.801 44.238C110.926 44.3627 111.095 44.4653 111.307 44.546C111.52 44.6193 111.755 44.6927 112.011 44.766C112.246 44.8247 112.47 44.8943 112.682 44.975C112.902 45.0483 113.1 45.1473 113.276 45.272C113.452 45.3967 113.592 45.558 113.694 45.756C113.797 45.9467 113.848 46.1887 113.848 46.482C113.848 46.8193 113.753 47.1127 113.562 47.362C113.372 47.604 113.119 47.791 112.803 47.923C112.495 48.0477 112.162 48.11 111.802 48.11C111.399 48.11 110.999 48.033 110.603 47.879C110.215 47.725 109.877 47.4647 109.591 47.098ZM117.925 42.225C118.424 42.225 118.871 42.3497 119.267 42.599C119.663 42.8483 119.975 43.193 120.202 43.633C120.437 44.073 120.554 44.579 120.554 45.151C120.554 45.7157 120.437 46.2217 120.202 46.669C119.975 47.109 119.663 47.4573 119.267 47.714C118.878 47.9633 118.438 48.088 117.947 48.088C117.676 48.088 117.419 48.0477 117.177 47.967C116.942 47.879 116.726 47.769 116.528 47.637C116.337 47.4977 116.176 47.3437 116.044 47.175C115.912 46.999 115.817 46.8267 115.758 46.658L116 46.504V49.749C116 49.8737 115.96 49.98 115.879 50.068C115.798 50.156 115.692 50.2 115.56 50.2C115.435 50.2 115.329 50.156 115.241 50.068C115.16 49.9873 115.12 49.881 115.12 49.749V42.72C115.12 42.5953 115.16 42.4927 115.241 42.412C115.329 42.324 115.435 42.28 115.56 42.28C115.692 42.28 115.798 42.324 115.879 42.412C115.96 42.4927 116 42.5953 116 42.72V43.699L115.835 43.611C115.886 43.4277 115.974 43.2517 116.099 43.083C116.231 42.9143 116.389 42.7677 116.572 42.643C116.763 42.511 116.972 42.4083 117.199 42.335C117.434 42.2617 117.676 42.225 117.925 42.225ZM117.826 43.039C117.459 43.039 117.133 43.1307 116.847 43.314C116.568 43.4973 116.348 43.7467 116.187 44.062C116.033 44.3773 115.956 44.7403 115.956 45.151C115.956 45.5543 116.033 45.9173 116.187 46.24C116.348 46.5627 116.568 46.8157 116.847 46.999C117.133 47.1823 117.459 47.274 117.826 47.274C118.193 47.274 118.515 47.1823 118.794 46.999C119.073 46.8157 119.293 46.5627 119.454 46.24C119.615 45.9173 119.696 45.5543 119.696 45.151C119.696 44.7403 119.615 44.3773 119.454 44.062C119.293 43.7467 119.073 43.4973 118.794 43.314C118.515 43.1307 118.193 43.039 117.826 43.039ZM122.724 47.549C122.724 47.6737 122.68 47.78 122.592 47.868C122.511 47.956 122.409 48 122.284 48C122.152 48 122.046 47.956 121.965 47.868C121.884 47.78 121.844 47.6737 121.844 47.549V42.665C121.844 42.5403 121.884 42.4377 121.965 42.357C122.053 42.269 122.159 42.225 122.284 42.225C122.409 42.225 122.511 42.269 122.592 42.357C122.68 42.4377 122.724 42.5403 122.724 42.665V47.549ZM122.284 41.488C122.101 41.488 121.965 41.4513 121.877 41.378C121.789 41.3047 121.745 41.191 121.745 41.037V40.883C121.745 40.729 121.793 40.6153 121.888 40.542C121.983 40.4687 122.119 40.432 122.295 40.432C122.471 40.432 122.603 40.4687 122.691 40.542C122.779 40.6153 122.823 40.729 122.823 40.883V41.037C122.823 41.191 122.775 41.3047 122.68 41.378C122.592 41.4513 122.46 41.488 122.284 41.488ZM124.745 48C124.62 48 124.514 47.956 124.426 47.868C124.345 47.78 124.305 47.6737 124.305 47.549V42.753C124.305 42.6283 124.345 42.5257 124.426 42.445C124.514 42.357 124.62 42.313 124.745 42.313C124.877 42.313 124.983 42.357 125.064 42.445C125.144 42.5257 125.185 42.6283 125.185 42.753V44.205L125.053 43.974C125.097 43.7467 125.174 43.5267 125.284 43.314C125.401 43.094 125.548 42.8997 125.724 42.731C125.9 42.555 126.101 42.4193 126.329 42.324C126.556 42.2213 126.805 42.17 127.077 42.17C127.238 42.17 127.385 42.2103 127.517 42.291C127.656 42.3643 127.726 42.4707 127.726 42.61C127.726 42.764 127.685 42.8777 127.605 42.951C127.524 43.0243 127.432 43.061 127.33 43.061C127.234 43.061 127.143 43.0427 127.055 43.006C126.967 42.962 126.857 42.94 126.725 42.94C126.541 42.94 126.358 42.9913 126.175 43.094C125.999 43.1893 125.834 43.3287 125.68 43.512C125.533 43.6953 125.412 43.9043 125.317 44.139C125.229 44.3663 125.185 44.612 125.185 44.876V47.549C125.185 47.6737 125.141 47.78 125.053 47.868C124.972 47.956 124.869 48 124.745 48ZM131.102 48.11C130.515 48.11 130.002 47.9853 129.562 47.736C129.122 47.4867 128.777 47.1457 128.528 46.713C128.286 46.273 128.165 45.767 128.165 45.195C128.165 44.557 128.289 44.0143 128.539 43.567C128.795 43.1123 129.125 42.7677 129.529 42.533C129.939 42.291 130.372 42.17 130.827 42.17C131.164 42.17 131.49 42.2323 131.806 42.357C132.121 42.4817 132.4 42.665 132.642 42.907C132.884 43.1417 133.078 43.4277 133.225 43.765C133.371 44.095 133.448 44.4653 133.456 44.876C133.456 44.9933 133.412 45.0923 133.324 45.173C133.236 45.2537 133.133 45.294 133.016 45.294H128.671L128.473 44.535H132.708L132.532 44.689V44.447C132.502 44.1463 132.4 43.8897 132.224 43.677C132.055 43.457 131.846 43.2883 131.597 43.171C131.355 43.0537 131.098 42.995 130.827 42.995C130.607 42.995 130.387 43.0353 130.167 43.116C129.954 43.1893 129.76 43.314 129.584 43.49C129.415 43.6587 129.276 43.8787 129.166 44.15C129.063 44.4213 129.012 44.7477 129.012 45.129C129.012 45.5543 129.096 45.9283 129.265 46.251C129.441 46.5737 129.683 46.8303 129.991 47.021C130.299 47.2043 130.658 47.296 131.069 47.296C131.325 47.296 131.549 47.263 131.74 47.197C131.93 47.131 132.095 47.0503 132.235 46.955C132.374 46.8523 132.491 46.7497 132.587 46.647C132.682 46.581 132.774 46.548 132.862 46.548C132.972 46.548 133.06 46.5847 133.126 46.658C133.199 46.7313 133.236 46.8193 133.236 46.922C133.236 47.0467 133.177 47.1567 133.06 47.252C132.854 47.4793 132.576 47.681 132.224 47.857C131.872 48.0257 131.498 48.11 131.102 48.11ZM135.922 48.022C135.922 48.2347 135.86 48.4437 135.735 48.649C135.618 48.8617 135.468 49.034 135.284 49.166C135.101 49.3053 134.914 49.375 134.723 49.375C134.657 49.375 134.591 49.3493 134.525 49.298C134.459 49.254 134.426 49.1733 134.426 49.056C134.426 48.9313 134.467 48.858 134.547 48.836C134.628 48.814 134.716 48.781 134.811 48.737C134.921 48.6783 135.006 48.605 135.064 48.517C135.13 48.4363 135.163 48.341 135.163 48.231C135.163 48.143 135.13 48.0697 135.064 48.011C135.006 47.9597 134.932 47.934 134.844 47.934C134.793 47.934 134.738 47.9413 134.679 47.956C134.628 47.9707 134.584 47.9927 134.547 48.022C134.496 47.9853 134.452 47.9413 134.415 47.89C134.379 47.8387 134.36 47.7727 134.36 47.692C134.368 47.5307 134.448 47.395 134.602 47.285C134.756 47.1677 134.932 47.109 135.13 47.109C135.365 47.109 135.556 47.197 135.702 47.373C135.849 47.549 135.922 47.7653 135.922 48.022ZM141.203 47.549C141.203 47.6737 141.159 47.78 141.071 47.868C140.983 47.956 140.877 48 140.752 48C140.628 48 140.525 47.956 140.444 47.868C140.364 47.78 140.323 47.6737 140.323 47.549V40.3C140.323 40.1753 140.364 40.0727 140.444 39.992C140.532 39.904 140.639 39.86 140.763 39.86C140.895 39.86 141.002 39.904 141.082 39.992C141.163 40.0727 141.203 40.1753 141.203 40.3V47.549ZM145.432 48.11C144.845 48.11 144.332 47.9853 143.892 47.736C143.452 47.4867 143.107 47.1457 142.858 46.713C142.616 46.273 142.495 45.767 142.495 45.195C142.495 44.557 142.619 44.0143 142.869 43.567C143.125 43.1123 143.455 42.7677 143.859 42.533C144.269 42.291 144.702 42.17 145.157 42.17C145.494 42.17 145.82 42.2323 146.136 42.357C146.451 42.4817 146.73 42.665 146.972 42.907C147.214 43.1417 147.408 43.4277 147.555 43.765C147.701 44.095 147.778 44.4653 147.786 44.876C147.786 44.9933 147.742 45.0923 147.654 45.173C147.566 45.2537 147.463 45.294 147.346 45.294H143.001L142.803 44.535H147.038L146.862 44.689V44.447C146.832 44.1463 146.73 43.8897 146.554 43.677C146.385 43.457 146.176 43.2883 145.927 43.171C145.685 43.0537 145.428 42.995 145.157 42.995C144.937 42.995 144.717 43.0353 144.497 43.116C144.284 43.1893 144.09 43.314 143.914 43.49C143.745 43.6587 143.606 43.8787 143.496 44.15C143.393 44.4213 143.342 44.7477 143.342 45.129C143.342 45.5543 143.426 45.9283 143.595 46.251C143.771 46.5737 144.013 46.8303 144.321 47.021C144.629 47.2043 144.988 47.296 145.399 47.296C145.655 47.296 145.879 47.263 146.07 47.197C146.26 47.131 146.425 47.0503 146.565 46.955C146.704 46.8523 146.821 46.7497 146.917 46.647C147.012 46.581 147.104 46.548 147.192 46.548C147.302 46.548 147.39 46.5847 147.456 46.658C147.529 46.7313 147.566 46.8193 147.566 46.922C147.566 47.0467 147.507 47.1567 147.39 47.252C147.184 47.4793 146.906 47.681 146.554 47.857C146.202 48.0257 145.828 48.11 145.432 48.11ZM153.837 42.258C153.962 42.258 154.065 42.302 154.145 42.39C154.233 42.4707 154.277 42.5733 154.277 42.698V47.549C154.277 47.6737 154.233 47.78 154.145 47.868C154.065 47.956 153.962 48 153.837 48C153.705 48 153.599 47.956 153.518 47.868C153.438 47.78 153.397 47.6737 153.397 47.549V46.504L153.606 46.482C153.606 46.6433 153.551 46.8193 153.441 47.01C153.331 47.2007 153.181 47.3803 152.99 47.549C152.8 47.7103 152.572 47.846 152.308 47.956C152.052 48.0587 151.773 48.11 151.472 48.11C150.974 48.11 150.526 47.9817 150.13 47.725C149.734 47.461 149.419 47.1053 149.184 46.658C148.957 46.2107 148.843 45.701 148.843 45.129C148.843 44.5497 148.957 44.04 149.184 43.6C149.419 43.1527 149.734 42.8043 150.13 42.555C150.526 42.2983 150.966 42.17 151.45 42.17C151.766 42.17 152.059 42.2213 152.33 42.324C152.602 42.4267 152.836 42.566 153.034 42.742C153.24 42.918 153.397 43.1123 153.507 43.325C153.625 43.5377 153.683 43.7503 153.683 43.963L153.397 43.897V42.698C153.397 42.5733 153.438 42.4707 153.518 42.39C153.599 42.302 153.705 42.258 153.837 42.258ZM151.571 47.296C151.938 47.296 152.261 47.2007 152.539 47.01C152.825 46.8193 153.045 46.5627 153.199 46.24C153.361 45.91 153.441 45.5397 153.441 45.129C153.441 44.7257 153.361 44.3627 153.199 44.04C153.045 43.71 152.825 43.4533 152.539 43.27C152.261 43.0793 151.938 42.984 151.571 42.984C151.212 42.984 150.889 43.0757 150.603 43.259C150.325 43.4423 150.105 43.6953 149.943 44.018C149.782 44.3407 149.701 44.711 149.701 45.129C149.701 45.5397 149.778 45.91 149.932 46.24C150.094 46.5627 150.314 46.8193 150.592 47.01C150.878 47.2007 151.205 47.296 151.571 47.296ZM156.348 48C156.224 48 156.117 47.956 156.029 47.868C155.949 47.78 155.908 47.6737 155.908 47.549V42.753C155.908 42.6283 155.949 42.5257 156.029 42.445C156.117 42.357 156.224 42.313 156.348 42.313C156.48 42.313 156.587 42.357 156.667 42.445C156.748 42.5257 156.788 42.6283 156.788 42.753V44.205L156.656 43.974C156.7 43.7467 156.777 43.5267 156.887 43.314C157.005 43.094 157.151 42.8997 157.327 42.731C157.503 42.555 157.705 42.4193 157.932 42.324C158.16 42.2213 158.409 42.17 158.68 42.17C158.842 42.17 158.988 42.2103 159.12 42.291C159.26 42.3643 159.329 42.4707 159.329 42.61C159.329 42.764 159.289 42.8777 159.208 42.951C159.128 43.0243 159.036 43.061 158.933 43.061C158.838 43.061 158.746 43.0427 158.658 43.006C158.57 42.962 158.46 42.94 158.328 42.94C158.145 42.94 157.962 42.9913 157.778 43.094C157.602 43.1893 157.437 43.3287 157.283 43.512C157.137 43.6953 157.016 43.9043 156.92 44.139C156.832 44.3663 156.788 44.612 156.788 44.876V47.549C156.788 47.6737 156.744 47.78 156.656 47.868C156.576 47.956 156.473 48 156.348 48ZM163.15 42.17C163.649 42.17 164.041 42.2727 164.327 42.478C164.613 42.6833 164.815 42.9583 164.932 43.303C165.057 43.6477 165.119 44.0327 165.119 44.458V47.549C165.119 47.6737 165.075 47.78 164.987 47.868C164.907 47.956 164.804 48 164.679 48C164.555 48 164.448 47.956 164.36 47.868C164.28 47.78 164.239 47.6737 164.239 47.549V44.48C164.239 44.2013 164.195 43.952 164.107 43.732C164.027 43.5047 163.887 43.325 163.689 43.193C163.499 43.0537 163.235 42.984 162.897 42.984C162.589 42.984 162.307 43.0537 162.05 43.193C161.794 43.325 161.588 43.5047 161.434 43.732C161.28 43.952 161.203 44.2013 161.203 44.48V47.549C161.203 47.6737 161.159 47.78 161.071 47.868C160.991 47.956 160.888 48 160.763 48C160.639 48 160.532 47.956 160.444 47.868C160.364 47.78 160.323 47.6737 160.323 47.549V42.753C160.323 42.6283 160.364 42.5257 160.444 42.445C160.532 42.357 160.639 42.313 160.763 42.313C160.895 42.313 161.002 42.357 161.082 42.445C161.163 42.5257 161.203 42.6283 161.203 42.753V43.534L160.983 43.776C161.02 43.5853 161.104 43.3947 161.236 43.204C161.368 43.006 161.533 42.83 161.731 42.676C161.929 42.522 162.149 42.401 162.391 42.313C162.633 42.2177 162.886 42.17 163.15 42.17ZM167.891 48.022C167.891 48.2347 167.829 48.4437 167.704 48.649C167.587 48.8617 167.436 49.034 167.253 49.166C167.07 49.3053 166.883 49.375 166.692 49.375C166.626 49.375 166.56 49.3493 166.494 49.298C166.428 49.254 166.395 49.1733 166.395 49.056C166.395 48.9313 166.435 48.858 166.516 48.836C166.597 48.814 166.685 48.781 166.78 48.737C166.89 48.6783 166.974 48.605 167.033 48.517C167.099 48.4363 167.132 48.341 167.132 48.231C167.132 48.143 167.099 48.0697 167.033 48.011C166.974 47.9597 166.901 47.934 166.813 47.934C166.762 47.934 166.707 47.9413 166.648 47.956C166.597 47.9707 166.553 47.9927 166.516 48.022C166.465 47.9853 166.421 47.9413 166.384 47.89C166.347 47.8387 166.329 47.7727 166.329 47.692C166.336 47.5307 166.417 47.395 166.571 47.285C166.725 47.1677 166.901 47.109 167.099 47.109C167.334 47.109 167.524 47.197 167.671 47.373C167.818 47.549 167.891 47.7653 167.891 48.022ZM174.591 42.17C174.906 42.17 175.2 42.225 175.471 42.335C175.742 42.4377 175.977 42.5733 176.175 42.742C176.38 42.9107 176.538 43.0867 176.648 43.27C176.765 43.4533 176.824 43.6257 176.824 43.787L176.615 43.655V42.698C176.615 42.5733 176.655 42.4707 176.736 42.39C176.817 42.302 176.923 42.258 177.055 42.258C177.18 42.258 177.282 42.302 177.363 42.39C177.451 42.4707 177.495 42.5733 177.495 42.698V47.516C177.495 48.1173 177.367 48.616 177.11 49.012C176.861 49.408 176.523 49.705 176.098 49.903C175.673 50.101 175.196 50.2 174.668 50.2C174.448 50.2 174.206 50.1707 173.942 50.112C173.678 50.0533 173.443 49.98 173.238 49.892C173.033 49.8113 172.901 49.727 172.842 49.639C172.732 49.5657 172.662 49.4813 172.633 49.386C172.611 49.298 172.629 49.2137 172.688 49.133C172.754 49.0303 172.838 48.979 172.941 48.979C173.051 48.979 173.187 49.012 173.348 49.078C173.414 49.1 173.517 49.1367 173.656 49.188C173.803 49.2393 173.964 49.2833 174.14 49.32C174.323 49.364 174.503 49.386 174.679 49.386C175.302 49.386 175.779 49.221 176.109 48.891C176.446 48.5683 176.615 48.1393 176.615 47.604V46.581L176.736 46.636C176.692 46.8413 176.6 47.032 176.461 47.208C176.329 47.384 176.164 47.5417 175.966 47.681C175.775 47.813 175.563 47.9193 175.328 48C175.093 48.0733 174.855 48.11 174.613 48.11C174.1 48.11 173.638 47.9817 173.227 47.725C172.816 47.4683 172.49 47.1163 172.248 46.669C172.013 46.2217 171.896 45.712 171.896 45.14C171.896 44.5607 172.013 44.0473 172.248 43.6C172.49 43.1527 172.813 42.8043 173.216 42.555C173.627 42.2983 174.085 42.17 174.591 42.17ZM174.701 42.984C174.327 42.984 173.99 43.0793 173.689 43.27C173.396 43.4533 173.165 43.7063 172.996 44.029C172.835 44.3517 172.754 44.722 172.754 45.14C172.754 45.5433 172.835 45.91 172.996 46.24C173.165 46.5627 173.396 46.8193 173.689 47.01C173.99 47.2007 174.327 47.296 174.701 47.296C175.082 47.296 175.42 47.2043 175.713 47.021C176.006 46.8303 176.237 46.5737 176.406 46.251C176.575 45.9283 176.659 45.558 176.659 45.14C176.659 44.7147 176.575 44.3407 176.406 44.018C176.237 43.6953 176.006 43.4423 175.713 43.259C175.42 43.0757 175.082 42.984 174.701 42.984ZM179.562 48C179.437 48 179.331 47.956 179.243 47.868C179.162 47.78 179.122 47.6737 179.122 47.549V42.753C179.122 42.6283 179.162 42.5257 179.243 42.445C179.331 42.357 179.437 42.313 179.562 42.313C179.694 42.313 179.8 42.357 179.881 42.445C179.962 42.5257 180.002 42.6283 180.002 42.753V44.205L179.87 43.974C179.914 43.7467 179.991 43.5267 180.101 43.314C180.218 43.094 180.365 42.8997 180.541 42.731C180.717 42.555 180.919 42.4193 181.146 42.324C181.373 42.2213 181.623 42.17 181.894 42.17C182.055 42.17 182.202 42.2103 182.334 42.291C182.473 42.3643 182.543 42.4707 182.543 42.61C182.543 42.764 182.503 42.8777 182.422 42.951C182.341 43.0243 182.25 43.061 182.147 43.061C182.052 43.061 181.96 43.0427 181.872 43.006C181.784 42.962 181.674 42.94 181.542 42.94C181.359 42.94 181.175 42.9913 180.992 43.094C180.816 43.1893 180.651 43.3287 180.497 43.512C180.35 43.6953 180.229 43.9043 180.134 44.139C180.046 44.3663 180.002 44.612 180.002 44.876V47.549C180.002 47.6737 179.958 47.78 179.87 47.868C179.789 47.956 179.687 48 179.562 48ZM188.691 45.14C188.691 45.712 188.563 46.2217 188.306 46.669C188.057 47.1163 187.716 47.4683 187.283 47.725C186.858 47.9817 186.377 48.11 185.842 48.11C185.307 48.11 184.823 47.9817 184.39 47.725C183.957 47.4683 183.613 47.1163 183.356 46.669C183.107 46.2217 182.982 45.712 182.982 45.14C182.982 44.568 183.107 44.0583 183.356 43.611C183.613 43.1637 183.957 42.8117 184.39 42.555C184.823 42.2983 185.307 42.17 185.842 42.17C186.377 42.17 186.858 42.2983 187.283 42.555C187.716 42.8117 188.057 43.1637 188.306 43.611C188.563 44.0583 188.691 44.568 188.691 45.14ZM187.811 45.14C187.811 44.7147 187.723 44.3407 187.547 44.018C187.378 43.6953 187.144 43.4423 186.843 43.259C186.55 43.0757 186.216 42.984 185.842 42.984C185.468 42.984 185.131 43.0757 184.83 43.259C184.537 43.4423 184.302 43.6953 184.126 44.018C183.95 44.3407 183.862 44.7147 183.862 45.14C183.862 45.558 183.95 45.9283 184.126 46.251C184.302 46.5737 184.537 46.8303 184.83 47.021C185.131 47.2043 185.468 47.296 185.842 47.296C186.216 47.296 186.55 47.2043 186.843 47.021C187.144 46.8303 187.378 46.5737 187.547 46.251C187.723 45.9283 187.811 45.558 187.811 45.14ZM196.725 42.214C196.842 42.214 196.941 42.2543 197.022 42.335C197.11 42.4157 197.154 42.522 197.154 42.654C197.154 42.6833 197.15 42.7163 197.143 42.753C197.143 42.7823 197.135 42.8117 197.121 42.841L195.427 47.714C195.39 47.8093 195.328 47.8827 195.24 47.934C195.159 47.9853 195.071 48.0073 194.976 48C194.807 47.9927 194.679 47.8973 194.591 47.714L193.205 44.238L193.425 44.271L192.171 47.714C192.09 47.8973 191.962 47.9927 191.786 48C191.69 48.0073 191.599 47.9853 191.511 47.934C191.423 47.8827 191.364 47.8093 191.335 47.714L189.608 42.841C189.586 42.775 189.575 42.7127 189.575 42.654C189.575 42.5367 189.615 42.434 189.696 42.346C189.776 42.258 189.886 42.214 190.026 42.214C190.114 42.214 190.194 42.236 190.268 42.28C190.341 42.324 190.392 42.3937 190.422 42.489L191.907 46.823L191.676 46.812L192.963 43.512C193.036 43.3287 193.172 43.237 193.37 43.237C193.472 43.237 193.553 43.2627 193.612 43.314C193.678 43.358 193.725 43.424 193.755 43.512L195.097 46.812L194.822 46.834L196.307 42.489C196.373 42.3057 196.512 42.214 196.725 42.214Z" fill="white"/>
<defs>
<linearGradient id="paint0_linear_42_27080" x1="53.3901" y1="9.83096" x2="53.0725" y2="71.0996" gradientUnits="userSpaceOnUse">
<stop stop-color="#48CA7D"/>
<stop offset="0.00726688" stop-color="#48CA7D"/>
<stop offset="0.0625" stop-color="#48CA7D"/>
<stop offset="0.09375" stop-color="#48CA7D"/>
<stop offset="0.109375" stop-color="#48CA7D"/>
<stop offset="0.117188" stop-color="#48CA7D"/>
<stop offset="0.121094" stop-color="#48CA7E"/>
<stop offset="0.125" stop-color="#48CA7F"/>
<stop offset="0.128906" stop-color="#48CA7F"/>
<stop offset="0.132812" stop-color="#48C980"/>
<stop offset="0.136719" stop-color="#47C981"/>
<stop offset="0.140625" stop-color="#47C981"/>
<stop offset="0.144531" stop-color="#47C982"/>
<stop offset="0.148438" stop-color="#47C982"/>
<stop offset="0.152344" stop-color="#47C983"/>
<stop offset="0.15625" stop-color="#47C984"/>
<stop offset="0.160156" stop-color="#47C984"/>
<stop offset="0.164063" stop-color="#47C985"/>
<stop offset="0.167969" stop-color="#47C986"/>
<stop offset="0.171875" stop-color="#47C986"/>
<stop offset="0.175781" stop-color="#47C887"/>
<stop offset="0.179688" stop-color="#47C887"/>
<stop offset="0.183594" stop-color="#47C888"/>
<stop offset="0.1875" stop-color="#46C889"/>
<stop offset="0.191406" stop-color="#46C889"/>
<stop offset="0.195313" stop-color="#46C88A"/>
<stop offset="0.199219" stop-color="#46C88A"/>
<stop offset="0.203125" stop-color="#46C88B"/>
<stop offset="0.207031" stop-color="#46C88C"/>
<stop offset="0.210938" stop-color="#46C88C"/>
<stop offset="0.214844" stop-color="#46C88D"/>
<stop offset="0.21875" stop-color="#46C78D"/>
<stop offset="0.222656" stop-color="#46C78E"/>
<stop offset="0.226563" stop-color="#46C78F"/>
<stop offset="0.230469" stop-color="#46C78F"/>
<stop offset="0.234375" stop-color="#46C790"/>
<stop offset="0.238281" stop-color="#46C790"/>
<stop offset="0.242188" stop-color="#45C791"/>
<stop offset="0.246094" stop-color="#45C792"/>
<stop offset="0.25" stop-color="#45C792"/>
<stop offset="0.253906" stop-color="#45C793"/>
<stop offset="0.257813" stop-color="#45C794"/>
<stop offset="0.261719" stop-color="#45C694"/>
<stop offset="0.265625" stop-color="#45C695"/>
<stop offset="0.269531" stop-color="#45C695"/>
<stop offset="0.273438" stop-color="#45C696"/>
<stop offset="0.277344" stop-color="#45C697"/>
<stop offset="0.28125" stop-color="#45C697"/>
<stop offset="0.285156" stop-color="#45C698"/>
<stop offset="0.289063" stop-color="#45C698"/>
<stop offset="0.292969" stop-color="#44C699"/>
<stop offset="0.296875" stop-color="#44C69A"/>
<stop offset="0.300781" stop-color="#44C59A"/>
<stop offset="0.304688" stop-color="#44C59B"/>
<stop offset="0.308594" stop-color="#44C59B"/>
<stop offset="0.3125" stop-color="#44C59C"/>
<stop offset="0.316406" stop-color="#44C59D"/>
<stop offset="0.320312" stop-color="#44C59D"/>
<stop offset="0.324219" stop-color="#44C59E"/>
<stop offset="0.328125" stop-color="#44C59F"/>
<stop offset="0.332031" stop-color="#44C59F"/>
<stop offset="0.335938" stop-color="#44C5A0"/>
<stop offset="0.339844" stop-color="#44C5A0"/>
<stop offset="0.34375" stop-color="#44C4A1"/>
<stop offset="0.347656" stop-color="#43C4A2"/>
<stop offset="0.351562" stop-color="#43C4A2"/>
<stop offset="0.355469" stop-color="#43C4A3"/>
<stop offset="0.359375" stop-color="#43C4A3"/>
<stop offset="0.363281" stop-color="#43C4A4"/>
<stop offset="0.367188" stop-color="#43C4A5"/>
<stop offset="0.371094" stop-color="#43C4A5"/>
<stop offset="0.375" stop-color="#43C4A6"/>
<stop offset="0.378906" stop-color="#43C4A6"/>
<stop offset="0.382812" stop-color="#43C4A7"/>
<stop offset="0.386719" stop-color="#43C3A8"/>
<stop offset="0.390625" stop-color="#43C3A8"/>
<stop offset="0.394531" stop-color="#43C3A9"/>
<stop offset="0.398438" stop-color="#42C3A9"/>
<stop offset="0.402344" stop-color="#42C3AA"/>
<stop offset="0.40625" stop-color="#42C3AB"/>
<stop offset="0.410156" stop-color="#42C3AB"/>
<stop offset="0.414062" stop-color="#42C3AC"/>
<stop offset="0.417969" stop-color="#42C3AC"/>
<stop offset="0.421875" stop-color="#42C3AD"/>
<stop offset="0.425781" stop-color="#42C2AE"/>
<stop offset="0.429688" stop-color="#42C2AE"/>
<stop offset="0.433594" stop-color="#42C2AF"/>
<stop offset="0.4375" stop-color="#42C2B0"/>
<stop offset="0.441406" stop-color="#42C2B0"/>
<stop offset="0.445312" stop-color="#42C2B1"/>
<stop offset="0.449219" stop-color="#42C2B1"/>
<stop offset="0.453125" stop-color="#41C2B2"/>
<stop offset="0.457031" stop-color="#41C2B3"/>
<stop offset="0.460938" stop-color="#41C2B3"/>
<stop offset="0.464844" stop-color="#41C2B4"/>
<stop offset="0.46875" stop-color="#41C1B4"/>
<stop offset="0.472656" stop-color="#41C1B5"/>
<stop offset="0.476563" stop-color="#41C1B6"/>
<stop offset="0.480469" stop-color="#41C1B6"/>
<stop offset="0.484375" stop-color="#41C1B7"/>
<stop offset="0.488281" stop-color="#41C1B7"/>
<stop offset="0.492188" stop-color="#41C1B8"/>
<stop offset="0.496094" stop-color="#41C1B9"/>
<stop offset="0.5" stop-color="#41C1B9"/>
<stop offset="0.503906" stop-color="#40C1BA"/>
<stop offset="0.507812" stop-color="#40C1BB"/>
<stop offset="0.511719" stop-color="#40C0BB"/>
<stop offset="0.515625" stop-color="#40C0BC"/>
<stop offset="0.519531" stop-color="#40C0BC"/>
<stop offset="0.523438" stop-color="#40C0BD"/>
<stop offset="0.527344" stop-color="#40C0BE"/>
<stop offset="0.53125" stop-color="#40C0BE"/>
<stop offset="0.535156" stop-color="#40C0BF"/>
<stop offset="0.539062" stop-color="#40C0BF"/>
<stop offset="0.542969" stop-color="#40C0C0"/>
<stop offset="0.546875" stop-color="#40C0C1"/>
<stop offset="0.550781" stop-color="#40C0C1"/>
<stop offset="0.554688" stop-color="#40BFC2"/>
<stop offset="0.558594" stop-color="#3FBFC2"/>
<stop offset="0.5625" stop-color="#3FBFC3"/>
<stop offset="0.566406" stop-color="#3FBFC4"/>
<stop offset="0.570312" stop-color="#3FBFC4"/>
<stop offset="0.574219" stop-color="#3FBFC5"/>
<stop offset="0.578125" stop-color="#3FBFC5"/>
<stop offset="0.582031" stop-color="#3FBFC6"/>
<stop offset="0.585938" stop-color="#3FBFC7"/>
<stop offset="0.589844" stop-color="#3FBFC7"/>
<stop offset="0.59375" stop-color="#3FBEC8"/>
<stop offset="0.597656" stop-color="#3FBEC9"/>
<stop offset="0.601562" stop-color="#3FBEC9"/>
<stop offset="0.605469" stop-color="#3FBECA"/>
<stop offset="0.609375" stop-color="#3FBECA"/>
<stop offset="0.613281" stop-color="#3EBECB"/>
<stop offset="0.617188" stop-color="#3EBECC"/>
<stop offset="0.621094" stop-color="#3EBECC"/>
<stop offset="0.625" stop-color="#3EBECD"/>
<stop offset="0.628906" stop-color="#3EBECD"/>
<stop offset="0.632812" stop-color="#3EBECE"/>
<stop offset="0.636719" stop-color="#3EBDCF"/>
<stop offset="0.640625" stop-color="#3EBDCF"/>
<stop offset="0.644531" stop-color="#3EBDD0"/>
<stop offset="0.648438" stop-color="#3EBDD0"/>
<stop offset="0.652344" stop-color="#3EBDD1"/>
<stop offset="0.65625" stop-color="#3EBDD2"/>
<stop offset="0.660156" stop-color="#3EBDD2"/>
<stop offset="0.664062" stop-color="#3DBDD3"/>
<stop offset="0.667969" stop-color="#3DBDD3"/>
<stop offset="0.671875" stop-color="#3DBDD4"/>
<stop offset="0.675781" stop-color="#3DBDD5"/>
<stop offset="0.679688" stop-color="#3DBCD5"/>
<stop offset="0.683594" stop-color="#3DBCD6"/>
<stop offset="0.6875" stop-color="#3DBCD7"/>
<stop offset="0.691406" stop-color="#3DBCD7"/>
<stop offset="0.695312" stop-color="#3DBCD8"/>
<stop offset="0.699219" stop-color="#3DBCD8"/>
<stop offset="0.703125" stop-color="#3DBCD9"/>
<stop offset="0.707031" stop-color="#3DBCDA"/>
<stop offset="0.710938" stop-color="#3DBCDA"/>
<stop offset="0.714844" stop-color="#3DBCDB"/>
<stop offset="0.71875" stop-color="#3CBCDB"/>
<stop offset="0.722656" stop-color="#3CBBDC"/>
<stop offset="0.726562" stop-color="#3CBBDD"/>
<stop offset="0.730469" stop-color="#3CBBDD"/>
<stop offset="0.734375" stop-color="#3CBBDE"/>
<stop offset="0.738281" stop-color="#3CBBDE"/>
<stop offset="0.742188" stop-color="#3CBBDF"/>
<stop offset="0.746094" stop-color="#3CBBE0"/>
<stop offset="0.75" stop-color="#3CBBE0"/>
<stop offset="0.753906" stop-color="#3CBBE1"/>
<stop offset="0.757812" stop-color="#3CBBE1"/>
<stop offset="0.761719" stop-color="#3CBAE2"/>
<stop offset="0.765625" stop-color="#3CBAE3"/>
<stop offset="0.769531" stop-color="#3BBAE3"/>
<stop offset="0.773438" stop-color="#3BBAE4"/>
<stop offset="0.777344" stop-color="#3BBAE5"/>
<stop offset="0.78125" stop-color="#3BBAE5"/>
<stop offset="0.785156" stop-color="#3BBAE6"/>
<stop offset="0.789062" stop-color="#3BBAE6"/>
<stop offset="0.792969" stop-color="#3BBAE7"/>
<stop offset="0.796875" stop-color="#3BBAE8"/>
<stop offset="0.800781" stop-color="#3BBAE8"/>
<stop offset="0.804688" stop-color="#3BB9E9"/>
<stop offset="0.808594" stop-color="#3BB9E9"/>
<stop offset="0.8125" stop-color="#3BB9EA"/>
<stop offset="0.816406" stop-color="#3BB9EB"/>
<stop offset="0.820312" stop-color="#3BB9EB"/>
<stop offset="0.824219" stop-color="#3AB9EC"/>
<stop offset="0.828125" stop-color="#3AB9EC"/>
<stop offset="0.832031" stop-color="#3AB9ED"/>
<stop offset="0.835938" stop-color="#3AB9EE"/>
<stop offset="0.839844" stop-color="#3AB9EE"/>
<stop offset="0.84375" stop-color="#3AB9EF"/>
<stop offset="0.847656" stop-color="#3AB8EF"/>
<stop offset="0.851562" stop-color="#3AB8F0"/>
<stop offset="0.855469" stop-color="#3AB8F1"/>
<stop offset="0.859375" stop-color="#3AB8F1"/>
<stop offset="0.863281" stop-color="#3AB8F2"/>
<stop offset="0.867188" stop-color="#3AB8F3"/>
<stop offset="0.871094" stop-color="#3AB8F3"/>
<stop offset="0.875" stop-color="#39B8F4"/>
<stop offset="0.878906" stop-color="#39B8F4"/>
<stop offset="0.882812" stop-color="#39B8F5"/>
<stop offset="0.886719" stop-color="#39B8F6"/>
<stop offset="0.890625" stop-color="#39B7F6"/>
<stop offset="0.894531" stop-color="#39B7F7"/>
<stop offset="0.898438" stop-color="#39B7F7"/>
<stop offset="0.902344" stop-color="#39B7F8"/>
<stop offset="0.90625" stop-color="#39B7F9"/>
<stop offset="0.910156" stop-color="#39B7F9"/>
<stop offset="0.914062" stop-color="#39B7FA"/>
<stop offset="0.917969" stop-color="#39B7FA"/>
<stop offset="0.921875" stop-color="#39B7FB"/>
<stop offset="0.925781" stop-color="#39B7FC"/>
<stop offset="0.929688" stop-color="#38B6FC"/>
<stop offset="0.933594" stop-color="#38B6FD"/>
<stop offset="0.9375" stop-color="#38B6FD"/>
<stop offset="0.941406" stop-color="#38B6FE"/>
<stop offset="0.945313" stop-color="#38B6FF"/>
<stop offset="0.953125" stop-color="#38B6FF"/>
<stop offset="0.96875" stop-color="#38B6FF"/>
<stop offset="0.992733" stop-color="#38B6FF"/>
<stop offset="1" stop-color="#38B6FF"/>
</linearGradient>
</defs>
</svg>
